Coordinates
version=1
nRows=11
nColumns=36
inDegrees=yes

Units are S.I. units (second, meters, Newtons, ...)
If the header above contains a line with 'inDegrees', this indicates whether rotational values are in degrees (yes) or radians (no).

endheader
time	pelvis_tilt	pelvis_list	pelvis_rotation	pelvis_tx	pelvis_ty	pelvis_tz	hip_flexion_r	hip_adduction_r	hip_rotation_r	knee_angle_r	knee_angle_r_beta	ankle_angle_r	subtalar_angle_r	mtp_angle_r	hip_flexion_l	hip_adduction_l	hip_rotation_l	knee_angle_l	knee_angle_l_beta	ankle_angle_l	subtalar_angle_l	mtp_angle_l	lumbar_extension	lumbar_bending	lumbar_rotation	arm_flex_r	arm_add_r	arm_rot_r	elbow_flex_r	pro_sup_r	arm_flex_l	arm_add_l	arm_rot_l	elbow_flex_l	pro_sup_l
      8.98333330	      3.63859810	     -7.75582319	      5.21458480	      0.04300835	      1.00640931	      0.01781812	     42.76168280	      0.90118172	     -4.99164028	     15.88190365	      0.27719151	     -1.29196402	     -1.73838642	     -7.49999987	     12.73243541	     -0.85452961	     10.70572602	     28.90069279	      0.50441225	     33.58024004	     -0.73342580	     -7.49999987	    -12.56202663	      9.12786433	      1.52909180	     83.50042115	     10.87127626	     56.32439639	    135.94329908	     96.57221221	    103.54839188	      9.89037710	     72.30505779	    110.99383209	     80.23696428
      9.00000000	      3.39808594	     -7.37713658	      5.15518951	      0.04100957	      1.00589549	      0.01704854	     43.02645238	      0.66165854	     -4.88791730	     15.56676851	      0.27169136	     -1.17513151	     -1.94689782	     -7.49999987	     13.65730176	     -0.55014370	     10.16769406	     30.07740356	      0.52494972	     34.37086947	      0.11966073	     -7.49999987	    -13.31598979	      8.60639353	      1.13841138	     84.09913942	     10.89703770	     56.73414785	    135.66484729	     96.79678118	    104.55537643	      9.33152929	     72.72609773	    111.65538737	     80.23199861
      9.01666670	      2.65739515	     -6.76657262	      5.50952465	      0.03837630	      0.99746952	      0.01631939	     43.72288097	     -0.07330810	     -4.44917184	     15.00724799	      0.26192589	     -1.08593046	     -2.16144064	     -7.49999987	     14.72906826	      0.39879153	     10.72196712	     31.71550537	      0.55353999	     36.44249317	     -0.04139264	     -7.49999987	    -13.17566585	      7.96422919	      1.01643413	     84.53002236	     10.66981826	     56.61083269	    135.33519507	     93.09973592	    104.97880901	      8.93879368	     72.72248221	    111.73404192	     78.07753965
      9.03333330	      2.20687321	     -6.71843426	      5.76297617	      0.03376480	      0.99256769	      0.01646339	     43.93734318	     -0.22572338	     -5.29860798	     13.95953859	      0.24363991	     -0.66412735	     -1.18287377	     -7.49999987	     15.34676285	      0.32875447	     10.63458686	     33.45569503	      0.58391203	     38.53593058	      1.33569613	     -7.49999987	    -13.61216060	      7.93289915	      0.98265040	     85.62183445	     10.72973259	     56.40077447	    135.79878479	    101.23263370	    106.36629477	      9.02876874	     73.24449331	    111.08602385	     82.81865976
      9.05000000	      2.12346827	     -6.95219727	      5.77206414	      0.04013483	      0.98867042	      0.01572072	     43.44223106	      0.10746023	     -5.79061723	     13.24155525	      0.23110874	     -0.23481205	     -1.08380765	     -7.49999987	     15.03175807	      0.01938051	     11.03276313	     34.94900442	      0.60997520	     40.75112841	      1.59810744	     -7.49999987	    -13.72611792	      8.12766577	      1.01620037	     85.76445711	     10.95556768	     56.45654840	    135.61934010	    101.42712749	    106.42980960	      8.94523179	     73.78216689	    110.57634006	     82.96385250
      9.06666670	      1.85970024	     -7.03288061	      5.05262068	      0.03634156	      0.97324315	      0.01633331	     44.29330192	      0.48966403	     -6.10800973	     13.56295679	      0.23671825	      0.34023682	     -0.69753333	     -7.49999987	     16.62252676	      0.00318688	      9.89905421	     37.30656656	      0.65112242	     42.90171201	      3.13250233	     -7.49999987	    -13.90692363	      7.87150020	      0.98084818	     86.55117668	     11.83285205	     56.87470368	    136.02222886	    101.49240812	    107.14458574	      8.69783226	     73.91485809	    110.56629064	     83.25111185
      9.08333330	      1.47392444	     -6.77246893	      4.94477952	      0.03159122	      0.96926297	      0.01711766	     45.01291226	      0.41520438	     -6.01342895	     13.52184520	      0.23600072	      1.04313230	     -0.82261611	     -7.49999987	     18.53399874	      0.24180683	      9.50375209	     39.83829450	      0.69530941	     44.25513206	      3.48678072	     -7.49999987	    -14.07677913	      7.26390438	      0.98027888	     87.39739690	     12.29211900	     57.23143237	    136.82039668	    100.98566806	    107.58847029	      9.07927274	     74.21836718	    111.09659577	     82.95461920
      9.10000000	      1.45285135	     -6.34611814	      5.08811853	      0.02702150	      0.97013917	      0.01802414	     45.21843242	     -0.08861812	     -5.78106188	     13.31151624	      0.23232979	      0.84065177	     -0.71457038	     -7.49999987	     20.82435982	      0.97088394	      8.79927985	     41.46770767	      0.72374803	     44.27994326	      4.06785596	     -7.49999987	    -14.96647680	      6.55956268	      0.68676575	     87.82795065	     12.54649952	     58.30259235	    137.30164342	    103.47866896	    107.93192149	      9.15216150	     75.41858413	    111.24335391	     85.05427477
      9.11666670	      1.47758470	     -5.97028011	      4.98855052	      0.02518508	      0.95593745	      0.01846037	     45.82689063	     -0.18935749	     -5.47429645	     13.64625255	      0.23817204	      1.27558436	     -0.94625880	     -7.49999987	     22.80426498	      1.24283978	      8.08936746	     44.36938388	      0.77439184	     44.75489521	      3.61260771	     -7.49999987	    -16.17692611	      5.83223652	      0.42824068	     88.63998713	     12.27651653	     58.52232933	    136.49922081	    103.49115392	    109.15250559	      9.10500202	     75.17508938	    111.73529295	     85.11665383
      9.13333330	      1.63876465	     -5.92106984	      5.37268295	      0.02781977	      0.94859435	      0.01799148	     45.85121487	     -0.44307098	     -5.17997052	     13.83271960	      0.24142650	      1.15645235	     -1.33638235	     -7.49999987	     24.71193664	      1.51225291	      7.76749816	     47.18708291	      0.82356996	     45.35644145	      3.58804240	     -7.49999987	    -16.48770027	      5.55896962	      0.22752523	     88.41294374	     11.55079441	     58.72945665	    136.02194073	    100.76549529	    109.36957429	      8.81411817	     76.01718879	    111.10420591	     83.03669058
      9.15000000	      1.87761785	     -5.60522875	      5.18839572	      0.02479475	      0.94597201	      0.01777918	     45.36372710	     -0.51657010	     -4.81484245	     13.06966289	      0.22810865	      1.15322063	     -1.16735672	     -7.49999987	     25.57923869	      1.95879078	      7.23130455	     49.28028913	      0.86010330	     45.40608532	      2.65523379	     -7.49999987	    -16.86512440	      4.95298968	     -0.01000083	     87.51086527	     10.75579837	     58.94463169	    135.25481062	     97.66348713	    109.41121336	      8.21958851	     76.90568849	    109.96485100	     81.72736264
